<?xml version="1.0" encoding="UTF-8" standalone="no"?>
<!-- Created with Inkscape (http://www.inkscape.org/) -->

<svg
   width="210mm"
   height="297mm"
   viewBox="0 0 210 297"
   version="1.1"
   id="svg1"
   inkscape:version="1.4.3 (0d15f75042, 2025-12-25)"
   sodipodi:docname="lockinToday_with_text.svg"
   xmlns:inkscape="http://www.inkscape.org/namespaces/inkscape"
   xmlns:sodipodi="http://sodipodi.sourceforge.net/DTD/sodipodi-0.dtd"
   xmlns="http://www.w3.org/2000/svg"
   xmlns:svg="http://www.w3.org/2000/svg">
  <sodipodi:namedview
     id="namedview1"
     pagecolor="#ffffff"
     bordercolor="#000000"
     borderopacity="0.25"
     inkscape:showpageshadow="2"
     inkscape:pageopacity="0.0"
     inkscape:pagecheckerboard="0"
     inkscape:deskcolor="#d1d1d1"
     inkscape:document-units="mm"
     inkscape:zoom="0.72751782"
     inkscape:cx="287.96546"
     inkscape:cy="663.90127"
     inkscape:window-width="1278"
     inkscape:window-height="680"
     inkscape:window-x="0"
     inkscape:window-y="0"
     inkscape:window-maximized="1"
     inkscape:current-layer="svg1" />
  <defs
     id="defs1">
    <rect
       x="323.81919"
       y="760.48446"
       width="176.62865"
       height="60.511667"
       id="rect2" />
    <rect
       x="251.85937"
       y="318.91284"
       width="261.67207"
       height="112.84608"
       id="rect1" />
    <inkscape:perspective
       sodipodi:type="inkscape:persp3d"
       inkscape:vp_x="0 : 148.5 : 1"
       inkscape:vp_y="0 : 1000 : 0"
       inkscape:vp_z="210 : 148.5 : 1"
       inkscape:persp3d-origin="105 : 99 : 1"
       id="perspective7" />
    <rect
       x="323.81918"
       y="760.48444"
       width="176.62865"
       height="60.511665"
       id="rect2-8" />
    <rect
       x="323.81918"
       y="760.48444"
       width="176.62865"
       height="60.511665"
       id="rect2-2" />
  </defs>
  <rect
     style="fill:#808080;stroke-width:0.264583"
     id="rect3"
     width="210.81177"
     height="297"
     x="0.58235294"
     y="0" />
  <g
     inkscape:label="Layer 1"
     inkscape:groupmode="layer"
     id="layer1">
    <g
       id="g19"
       transform="matrix(0.71357751,0,0,0.69400638,34.757146,58.90078)">
      <path
         id="path1"
         style="fill:#ffcc00;stroke-width:0.582353"
         d="m 70.196391,144.42374 -2.911967,16.37365 -2.911967,30.57332 32.02957,0.5824 24.947193,0.53711 -1.25172,-43.38496 -2.14846,2.6658 -18.052653,-2.32957 z m 26.346712,12.07417 c 4.996567,-8e-5 9.047097,3.33576 9.046997,7.4507 4e-5,2.7064 -1.78197,5.19999 -4.65501,6.51382 v 11.9786 h -9.245437 v -12.20494 c -2.611599,-1.36721 -4.19345,-3.73892 -4.193543,-6.28748 -9.9e-5,-4.11494 4.050435,-7.45078 9.046993,-7.4507 z"
         sodipodi:nodetypes="ccccccccccccccccc" />
      <path
         id="path3"
         style="fill:#ffcc00;stroke-width:0.264583"
         d="M 97.52156,104.28969 C 75.996705,103.83944 69.568703,149.131 69.568703,149.131 l 50.483087,5.28302 c 0,0 -1.85873,-49.69192 -22.53023,-50.12433 z m -0.276469,7.2099 c 12.095019,0.29689 18.245189,35.30728 18.245189,35.30728 l -39.017799,-2.11182 c 0,0 8.178278,-33.5046 20.77261,-33.19546 z"
         sodipodi:nodetypes="sccssccs" />
    </g>
  </g>
  <text
     xml:space="preserve"
     transform="matrix(0.26458333,0,0,0.26458333,21.079916,33.544509)"
     id="text1"
     style="font-size:48px;writing-mode:lr-tb;direction:ltr;white-space:pre;shape-inside:url(#rect1);fill:#00ff00"><tspan
       x="251.85938"
       y="361.38086"
       id="tspan4"><tspan
         style="font-family:'Alfa Slab One';-inkscape-font-specification:'Alfa Slab One';fill:#aca793"
         id="tspan2">Lock</tspan></tspan></text>
  <text
     xml:space="preserve"
     transform="matrix(0.26458333,0,0,0.26458333,8.3061812,-39.634181)"
     id="text2-3"
     style="font-style:normal;font-variant:normal;font-weight:normal;font-stretch:normal;font-size:18.6667px;font-family:'Alfa Slab One';-inkscape-font-specification:'Alfa Slab One';writing-mode:lr-tb;direction:ltr;white-space:pre;shape-inside:url(#rect2-2);display:inline;fill:#aca793"><tspan
       x="323.81836"
       y="776.94386"
       id="tspan5">Today</tspan></text>
  <text
     xml:space="preserve"
     transform="matrix(0.26458333,0,0,0.26458333,21.827735,-20.490968)"
     id="text2-7"
     style="font-style:normal;font-variant:normal;font-weight:normal;font-stretch:normal;font-size:4820px;font-family:'Alfa Slab One';-inkscape-font-specification:'Alfa Slab One';writing-mode:lr-tb;direction:ltr;white-space:pre;shape-inside:url(#rect2-8);display:inline;fill:#aca793"><tspan
       x="323.81836"
       y="5071.0637"
       id="tspan7"><tspan
         dx="0 14.20002 12.639999 13.160019 12.299995"
         style="font-size:20px"
         id="tspan6">Today</tspan></tspan></text>
  <text
     xml:space="preserve"
     style="font-style:normal;font-variant:normal;font-weight:normal;font-stretch:normal;font-size:12.7px;font-family:'Alfa Slab One';-inkscape-font-specification:'Alfa Slab One';writing-mode:lr-tb;direction:ltr;fill:#aca793;stroke-width:0.264583"
     x="96.738754"
     y="152.74539"
     id="text3"><tspan
       sodipodi:role="line"
       id="tspan3"
       style="stroke-width:0.264583"
       x="96.738754"
       y="152.74539">in</tspan></text>
</svg>
